<?xml version="1.0" standalone="no"?><!DOCTYPE svg PUBLIC "-//W3C//DTD SVG 1.1//EN" "http://www.w3.org/Graphics/SVG/1.1/DTD/svg11.dtd"><svg t="1749523302841" class="icon" viewBox="0 0 1024 1024" version="1.1" xmlns="http://www.w3.org/2000/svg" p-id="9559" width="256" height="256" xmlns:xlink="http://www.w3.org/1999/xlink"><path d="M163.948643 144.558394c9.671396 0 17.585355 7.913959 17.585356 17.585355v20.892413h63.948108v41.56702H181.533999v14.280296c0 9.672395-7.913959 17.585355-17.585356 17.585355-9.672395 0-17.586354-7.913959-17.586354-17.585355v-76.73873c0-9.672395 7.913959-17.586354 17.586354-17.586354z" fill="#EF4136" p-id="9560"></path><path d="M163.949642 268.534099c-16.350454 0-29.654618-13.302166-29.654617-29.649622v-76.739729c0-16.352452 13.303165-29.654618 29.654617-29.654618 16.349455 0 29.65162 13.302166 29.651621 29.654618v8.82415h63.949108v65.700549h-63.949108v2.21503c0 16.347457-13.302166 29.649622-29.651621 29.649622z m0-111.90944c-2.992338 0-5.520089 2.526752-5.520089 5.520089v76.739729c0 2.988341 2.527751 5.515094 5.520089 5.515093 2.991339 0 5.517092-2.526752 5.517092-5.515093v-26.349558h63.949108v-17.431492h-63.949108v-32.958679c0-2.993337-2.526752-5.520089-5.517092-5.520089z" fill="" p-id="9561"></path><path d="M860.051357 144.558394c-9.671396 0-17.585355 7.913959-17.585356 17.585355v20.892413h-63.948108v41.56702h63.948108v14.280296c0 9.672395 7.913959 17.585355 17.585356 17.585355 9.672395 0 17.586354-7.913959 17.586354-17.585355v-76.73873c0-9.672395-7.913959-17.586354-17.586354-17.586354z" fill="#EF4136" p-id="9562"></path><path d="M860.050358 268.534099c-16.349455 0-29.65162-13.302166-29.651621-29.649622v-2.21503h-63.949108V170.968898h63.949108v-8.82415c0-16.352452 13.302166-29.654618 29.651621-29.654618 16.350454 0 29.654618 13.302166 29.654617 29.654618v76.739729c0 16.347457-13.303165 29.649622-29.654617 29.649622z m-69.4662-56.000179h63.949108v26.349558c0 2.988341 2.526752 5.515094 5.517092 5.515093 2.992338 0 5.520089-2.526752 5.520089-5.515093v-76.739729c0-2.993337-2.527751-5.520089-5.520089-5.520089-2.991339 0-5.517092 2.526752-5.517092 5.520089v32.958678h-63.949108v17.431493z" fill="" p-id="9563"></path><path d="M227.347241 63.396599c0-28.301821 24.338347-51.326338 54.255731-51.326337h460.791058c29.918383 0 54.25773 23.024516 54.25773 51.326337v302.264092a72.937112 72.937112 0 0 0-14.762866 5.143424c-3.356014-12.040288-10.944263-22.838682-17.902074-32.704904-5.708921-8.101792-12.183161-17.283624-12.183161-22.502981H272.196341c0 5.216359-6.473241 14.400189-12.183161 22.500982-6.952814 9.861227-14.540064 20.655624-17.899076 32.691916a72.908137 72.908137 0 0 0-14.766863-5.13643V63.396599z" fill="#1A1A1A" p-id="9564"></path><path d="M774.117807 387.862938l-3.852572-13.820704c-2.814496-10.092022-9.587471-19.698475-16.138643-28.98921-4.713806-6.689049-8.543399-12.30805-11.063157-17.389529H280.937564c-2.519758 5.081479-6.347353 10.70048-11.054165 17.374542-6.559165 9.304722-13.333138 18.911176-16.146636 28.994206l-3.85457 13.811712-12.94948-6.156523a60.995735 60.995735 0 0 0-12.322038-4.285187l-9.330698-2.173067V63.3956c0-34.956901 29.75353-63.3956 66.323994-63.3956h460.790059c36.572463 0 66.325993 28.4377 66.325993 63.3956v311.843569l-9.329699 2.173067a60.741961 60.741961 0 0 0-12.319041 4.289184l-12.953476 6.161518zM281.603971 24.134529c-23.263304 0-42.189466 17.610333-42.189466 39.261071v283.928404c3.402973-5.778859 7.183609-11.143087 10.735449-16.177608 3.193159-4.52997 9.055943-12.849568 9.979123-16.068704v-11.548726h503.741846v11.548726c0.92118 3.21514 6.77797 11.524747 9.961139 16.045725 3.560832 5.048509 7.346464 10.412736 10.753433 16.201586V63.3956c0-21.650738-18.927161-39.261071-42.191465-39.261071h-460.790059z" fill="" p-id="9565"></path><path d="M512 361.418465m-284.434953 0a284.434953 284.434953 0 1 0 568.869906 0 284.434953 284.434953 0 1 0-568.869906 0Z" fill="#F8EDD2" p-id="9566"></path><path d="M512.000999 657.918684c-163.492549 0-296.502217-133.008669-296.502217-296.500219S348.50845 64.91325 512.000999 64.91325c163.490551 0 296.501218 133.012665 296.501218 296.505215S675.49155 657.918684 512.000999 657.918684z m0-568.870905c-150.184389 0-272.367689 122.185298-272.367688 272.370686s122.184299 272.36569 272.367688 272.36569S784.367689 511.603852 784.367689 361.418465 662.184389 89.047779 512.000999 89.047779z" fill="" p-id="9567"></path><path d="M798.973694 314.961795C780.998686 169.794942 660.308058 66.130167 508.982684 66.130167c-147.356904 0-268.617025 104.185312-283.956378 237.951307 8.601348-32.564029 29.927375-60.436233 58.761722-78.802893 28.837345 18.275741 50.215326 45.997079 58.861634 78.494168 1.053063 3.955481 7.004768 3.955481 8.057832 0 10.362781-38.946351 38.982319-71.054786 76.863618-88.20353 37.796375 17.194703 66.34098 49.309132 76.689773 88.20353 1.053063 3.955481 7.005767 3.955481 8.057831 0 10.570596-39.726657 40.092332-72.43256 79.101628-89.334524 39.115201 16.866994 68.760827 49.538928 79.349407 89.334524 1.053063 3.955481 7.005767 3.955481 8.057831 0 8.400526-31.574909 28.811368-58.650821 56.410814-76.921567 30.712677 20.439816 57.529819 51.849872 63.735298 88.110613z" fill="#1A1A1A" p-id="9568"></path><path d="M389.531954 503.172354c9.100903 27.535503 60.466206 48.626739 122.469045 48.626739s113.367143-21.091236 122.468047-48.626739H389.531954z" fill="#C90505" p-id="9569"></path><path d="M512.000999 563.865358c-67.780699 0-122.853703-23.399183-133.927851-56.909371l-5.239339-15.851897h278.332382l-5.239339 15.851897c-11.074148 33.510188-66.146153 56.909371-133.925853 56.909371z m-97.636138-48.627738c18.53551 13.467019 53.856087 24.492211 97.636138 24.49221 43.780051 0 79.099629-11.025191 97.635139-24.49221H414.364861z" fill="" p-id="9570"></path><path d="M457.646356 513.945769h37.573572v16.699144h-37.573572z" fill="#F4F9F8" p-id="9571"></path><path d="M466.124813 398.108823s1.861344 1.602574 3.862563 4.343136c2.049177 2.719581 4.273198 6.563161 6.018646 10.608562 1.704484 4.063385 2.936388 8.32859 3.468914 11.692598 0.581483 3.344025 0.437611 5.798841 0.437611 5.798841s-1.867339-1.600576-3.870557-4.340139c-2.053173-2.718581-4.268203-6.565159-6.010653-10.612558-1.701486-4.064384-2.925397-8.332587-3.460921-11.695595-0.583481-3.342027-0.445604-5.794845-0.445603-5.794845zM484.780216 391.620595s1.861344 1.602574 3.862564 4.343136c2.049177 2.72058 4.273198 6.563161 6.018645 10.608563 1.704484 4.063385 2.936388 8.327591 3.468914 11.692597 0.582482 3.343026 0.437611 5.798841 0.437611 5.798841s-1.867339-1.600576-3.870557-4.340138c-2.053173-2.718581-4.268203-6.56416-6.010652-10.61156-1.701486-4.064384-2.925397-8.332587-3.460921-11.695595-0.583481-3.344025-0.445604-5.795844-0.445604-5.795844zM503.43462 385.130369s1.861344 1.602574 3.862564 4.344136c2.050176 2.719581 4.273198 6.563161 6.018645 10.609561 1.704484 4.063385 2.936388 8.327591 3.468914 11.692598 0.581483 3.343026 0.43861 5.798841 0.43861 5.798841s-1.868338-1.600576-3.871556-4.340139c-2.052174-2.718581-4.268203-6.56416-6.010652-10.612559-1.701486-4.064384-2.925397-8.332587-3.460921-11.695595-0.583481-3.344025-0.445604-5.796843-0.445604-5.796843zM522.090023 378.642142s1.861344 1.602574 3.863563 4.343136c2.049177 2.719581 4.273198 6.563161 6.018646 10.609561 1.704484 4.063385 2.936388 8.327591 3.468914 11.692598 0.581483 3.344025 0.43861 5.798841 0.438609 5.798841s-1.867339-1.599577-3.870556-4.340139c-2.052174-2.718581-4.268203-6.565159-6.010653-10.612559-1.701486-4.064384-2.925397-8.332587-3.460921-11.695595-0.585479-3.343026-0.447602-5.795844-0.447602-5.795843zM540.744428 372.153914s1.861344 1.602574 3.863562 4.343136c2.049177 2.719581 4.273198 6.562162 6.018646 10.608562 1.705483 4.063385 2.936388 8.327591 3.468914 11.692598 0.581483 3.344025 0.437611 5.798841 0.43761 5.798841s-1.867339-1.600576-3.870556-4.340139c-2.053173-2.718581-4.269202-6.56416-6.010653-10.611559-1.701486-4.064384-2.924398-8.332587-3.460921-11.695595-0.583481-3.343026-0.446603-5.795844-0.446602-5.795844z" fill="#1A1A1A" p-id="9572"></path><path d="M561.333111 376.355176l2.524754 5.98068-101.225945 42.718995-2.524754-5.981679z" fill="#1A1A1A" p-id="9573"></path><path d="M795.92141 325.089784c-5.778859 0-10.885316-4.162297-11.883428-10.050059-4.64187-27.382639-23.148406-54.481531-51.199451-75.330982-21.911506 16.715129-37.49764 39.595774-44.244637 65.195999-1.886322 7.155634-8.178724 11.958361-15.65807 11.958361s-13.773746-4.803726-15.661067-11.954365c-9.054944-34.353438-33.308367-62.938007-66.917467-79.134598-33.476218 16.210578-57.647714 44.795148-66.697663 79.129603-1.886322 7.155634-8.179723 11.958361-15.660068 11.958361s-13.773746-4.803726-15.659069-11.954365c-8.786183-33.340339-32.083457-61.453328-64.309787-77.885709-32.313253 16.39941-55.660482 44.5124-64.454658 77.880714-1.886322 7.155634-8.179723 11.958361-15.660068 11.958361-7.479346 0-13.772747-4.803726-15.659069-11.954365-7.006766-26.585348-23.439147-50.102426-46.619525-66.959429-23.1554 16.921945-39.562803 40.537935-46.548588 67.246174-1.687499 6.448263-8.280633 10.280854-14.728896 8.62133-6.447264-1.687499-10.306831-8.281632-8.620331-14.730895 9.16085-35.01385 31.659834-65.521709 63.353637-85.89858l6.510208-4.186276 6.5202 4.171289c24.949803 15.9608 44.218661 38.163048 55.78537 63.876173 14.496104-32.32724 40.969552-58.789698 75.119171-74.396813l5.028526-2.299954 5.023531 2.309945c34.034721 15.631094 60.434235 42.074568 74.910356 74.345858 14.845792-33.208456 42.181473-60.109524 77.518036-75.566772l4.824708-2.112121 4.827705 2.10213c35.487429 15.447257 62.922022 42.362312 77.793791 75.613731 11.160071-24.779955 29.503752-46.369747 53.143721-62.164696l6.723018-4.496999 6.712029 4.510987c37.298817 25.058707 62.193669 60.090541 68.300237 96.108497 1.114009 6.571154-3.310055 12.80261-9.88021 13.914621-0.684391 0.122891-1.362788 0.174844-2.032192 0.174844z" fill="" p-id="9574"></path><path d="M284.267602 359.712982m-19.8963 0a19.896299 19.896299 0 1 0 39.792599 0 19.896299 19.896299 0 1 0-39.792599 0Z" fill="#FFFFFF" p-id="9575"></path><path d="M755.726169 939.335322c0-142.872893-109.221831-243.953967-243.953966-243.953967S267.819235 796.462428 267.819235 939.335322h487.906934z" fill="#7B9FBA" p-id="9576"></path><path d="M759.779563 954.321989H251.231992v-14.001544c0-70.791021 28.919272-135.959044 77.324208-183.492756 47.626629-46.774387 113.021451-72.530473 182.087007-72.530473s129.887446 25.756086 177.514075 72.530473C736.563218 804.361401 759.779563 869.528425 759.779563 940.320445V954.321989z m-479.613312-21.980445h463.213902c-5.860786-128.885337-103.460956-219.821436-231.606951-219.821436S286.026037 803.456206 280.166251 932.341544z" fill="" p-id="9577"></path><path d="M269.013173 927.214105l-0.170848 13.78174 40.138291 23.038503 37.404723-28.608548 20.327915 21.225117 39.031276-16.611222 62.612297 30.453907 64.164916-29.497757 17.488441 34.592225 41.943685-38.316912s43.09566 33.222444 47.975319 32.299265c4.87866-0.92218 39.843553-35.067802 39.843553-35.067802l25.207574 24.916833 21.142191-21.226116 21.142191 44.29759 7.904967-57.096204" fill="#7B9FBA" p-id="9578"></path><path d="M753.698973 1023.999001l-31.100332-65.168023-17.554383 17.620324-25.361437-25.067699c-29.840452 28.598557-34.239539 29.42782-37.522618 30.04527-4.914628 0.924178-9.592466 1.824377-49.520944-28.442696l-46.226874 42.235426-19.415727-38.407831-58.7867 27.028954-62.80013-30.544826-41.644951 17.724232-18.627428-19.448698-35.203681 26.925046-53.246629-30.563809 0.258769-20.867435c0.080928-6.66507 5.628992-12.180164 12.216132-11.916399 6.664071 0.084924 11.999325 5.55306 11.916399 12.218131l-0.082926 6.689049 27.028954 15.517195 39.605764-30.291052 22.028403 23.003535 36.417601-15.499211 62.423465 30.356993 69.543131-31.968559 15.562155 30.780616 37.688471-34.42937 8.02486 6.184498c14.096459 10.870329 31.225221 23.2673 39.398949 28.216897 6.994777-5.703926 21.029291-18.73733 32.621978-30.059258l8.482454-8.281632 25.08868 24.803933 24.730998-24.831908 11.182052 23.432153 2.388874-17.247655c0.912188-6.604125 7.012761-11.223015 13.607894-10.299837 6.601127 0.914187 11.213024 7.009764 10.297839 13.608893l-13.419062 96.944753z" fill="" p-id="9579"></path><path d="M569.714654 703.042539c0 26.221672-26.023848 50.070455-57.115187 50.070455-31.092339 0-57.940453-23.848783-57.940454-50.070455 0 0 27.983105-6.679058 57.319007-6.679058s57.736635 6.679058 57.736634 6.679058z" fill="#F8EDD2" p-id="9580"></path><path d="M505.418855 765.180259c-37.293822 0-68.352191-29.037167-68.352191-62.136721v-9.526524l12.0273-2.211033c1.199932-0.287744 31.094337-7.009764 61.501286-7.009764 30.385967 0 55.557573 6.712029 56.772492 6.999773l5.578038 2.188053v9.559495c0 33.680037-30.026287 62.13672-67.526925 62.136721z m-37.023063-52.586217c5.543069 15.78196 24.123539 28.452687 44.203675 28.452687 19.70447 0 37.938248-12.651744 43.396392-28.419717-10.504655-1.84336-27.205796-4.195268-44.017839-4.195267-16.784068 0-33.220445 2.323933-43.582228 4.162297z" fill="" p-id="9581"></path></svg>